#N canvas 772 61 638 550 10;
#X obj 162 79 gemhead;
#X obj 160 176 GEMglGetIntegerv 2978;
#X msg 269 216 \$3 \$4;
#X obj 276 258 outlet;
#X obj 160 24 route bang;
#X msg 159 50 bang \, 0;
#X obj 159 1 inlet;
#X obj 351 224 unpack;
#X obj 352 265 /;
#X msg 353 288 \$1 1;
#X obj 352 312 outlet;
#X connect 0 0 1 0;
#X connect 1 1 2 0;
#X connect 2 0 3 0;
#X connect 2 0 7 0;
#X connect 4 0 5 0;
#X connect 4 1 0 0;
#X connect 5 0 0 0;
#X connect 6 0 4 0;
#X connect 7 0 8 0;
#X connect 7 1 8 1;
#X connect 8 0 9 0;
#X connect 9 0 10 0;
