#N canvas 0 22 450 300 10;
#X obj 56 117 gemDim;
#X obj 55 188 print;
#X obj 105 189 print;
#X obj 55 88 tgl 15 0 empty empty empty 17 7 0 10 -262144 -1 -1 0 1
;
#X obj 74 88 bng 15 250 50 0 empty empty empty 17 7 0 10 -262144 -1
-1;
#X obj 212 62 gemwin;
#X msg 223 22 create \, 1;
#X msg 297 22 destroy;
#X text 188 123 outlet 1 window dimentionw;
#X text 187 135 outlet 2 gem-dimentions normalized;
#X obj 103 167 spigot;
#X obj 55 168 spigot;
#X obj 89 148 tgl 15 0 empty empty empty 17 7 0 10 -262144 -1 -1 0
1;
#X obj 136 149 tgl 15 0 empty empty empty 17 7 0 10 -262144 -1 -1 0
1;
#X text 301 270 Arnaud Courcelle 2013;
#X text 186 154 useful for gemmouse2 \, readPixel \, or scaling object
;
#X text 187 109 inlet : stop-start stream;
#X connect 0 0 11 0;
#X connect 0 1 10 0;
#X connect 3 0 0 0;
#X connect 4 0 0 0;
#X connect 6 0 5 0;
#X connect 7 0 5 0;
#X connect 10 0 2 0;
#X connect 11 0 1 0;
#X connect 12 0 11 1;
#X connect 13 0 10 1;
