#N canvas 0 22 688 342 10;
#X obj 128 88 gemmouse2 1;
#X obj 228 88 gemmouse2 0;
#X obj 192 128 bng 15 250 50 0 empty empty empty 17 7 0 10 -262144
-1 -1;
#X obj 292 126 bng 15 250 50 0 empty empty empty 17 7 0 10 -262144
-1 -1;
#X obj 103 140 unpack;
#X floatatom 100 177 5 0 0 0 - - -;
#X floatatom 135 178 5 0 0 0 - - -;
#X floatatom 227 176 5 0 0 0 - - -;
#X floatatom 262 178 5 0 0 0 - - -;
#X obj 226 146 unpack;
#X obj 387 55 gemwin;
#X msg 390 24 create \, 1;
#X msg 470 22 destroy;
#X msg 541 23 dimen 800 600;
#X text 178 260 arg: 0 for real Gem dimentions \, 1 for Window dimentions
;
#X connect 0 0 4 0;
#X connect 0 1 2 0;
#X connect 1 0 9 0;
#X connect 1 1 3 0;
#X connect 4 0 5 0;
#X connect 4 1 6 0;
#X connect 9 0 7 0;
#X connect 9 1 8 0;
#X connect 11 0 10 0;
#X connect 12 0 10 0;
#X connect 13 0 10 0;
