#N canvas 118 27 639 482 10;
#X obj 83 58 gemmouse 1 1;
#X obj 230 31 gemdim;
#X obj 89 217 *;
#X msg 101 195 \$1;
#X obj 125 216 *;
#X msg 143 193 \$2;
#X obj 94 256 pack;
#X obj 98 325 outlet;
#X obj 84 169 expr $f1*8-4;
#X obj 108 139 expr $f1*(-8)+4;
#X obj 250 320 outlet;
#X obj 29 77 initbang;
#X obj 31 116 \$1;
#X obj 27 137 sel 0;
#X obj 98 299 spigot;
#X obj 265 226 pack;
#X obj 258 258 spigot;
#X obj 247 163 *;
#X obj 282 167 *;
#X msg 299 114 \$1;
#X msg 341 122 \$2;
#X obj 251 201 int;
#X obj 280 204 int;
#X obj 295 69 expr 1-$f1;
#X msg 22 183 1;
#X msg 44 183 0;
#X msg 311 207 0;
#X msg 333 185 1;
#X connect 0 0 17 0;
#X connect 0 0 8 0;
#X connect 0 1 23 0;
#X connect 0 1 9 0;
#X connect 0 2 10 0;
#X connect 1 0 19 0;
#X connect 1 0 20 0;
#X connect 1 1 3 0;
#X connect 1 1 5 0;
#X connect 2 0 6 0;
#X connect 3 0 2 1;
#X connect 4 0 6 1;
#X connect 5 0 4 1;
#X connect 6 0 14 0;
#X connect 8 0 2 0;
#X connect 9 0 4 0;
#X connect 11 0 12 0;
#X connect 12 0 13 0;
#X connect 13 0 24 0;
#X connect 13 0 26 0;
#X connect 13 1 25 0;
#X connect 13 1 27 0;
#X connect 14 0 7 0;
#X connect 15 0 16 0;
#X connect 16 0 7 0;
#X connect 17 0 21 0;
#X connect 18 0 22 0;
#X connect 19 0 17 1;
#X connect 20 0 18 1;
#X connect 21 0 15 0;
#X connect 22 0 15 1;
#X connect 23 0 18 0;
#X connect 24 0 14 1;
#X connect 25 0 14 1;
#X connect 26 0 16 1;
#X connect 27 0 16 1;
